<svg width="60" height="60" viewBox="0 0 60 60" fill="none" xmlns="http://www.w3.org/2000/svg">
<path fill-rule="evenodd" clip-rule="evenodd" d="M29.5386 12.5859H55.3847V24.8919H29.5386V12.5859Z" fill="white"/>
<path fill-rule="evenodd" clip-rule="evenodd" d="M6.15385 52.7612C3.87754 52.7612 1.89446 51.3037 0.829846 49.1418C0.286304 50.2409 -2.37117e-05 51.4897 1.47279e-09 52.7612C1.47279e-09 56.7592 2.75508 60 6.15385 60H12.3077V52.7612H6.15385Z" fill="white"/>
<path fill-rule="evenodd" clip-rule="evenodd" d="M33.8401 14.5317L55.3848 12.9479V9.32852C55.3848 5.33054 52.6297 2.08974 49.2309 2.08974H21.5386L20.7694 0.522549C20.4272 -0.174183 19.5728 -0.174183 19.2309 0.522549L18.4617 2.08974L17.6924 0.522549C17.3506 -0.174183 16.4958 -0.174183 16.154 0.522549L15.3848 2.08974L14.6155 0.522549C14.2737 -0.174183 13.4189 -0.174183 13.0771 0.522549L12.3078 2.08974C12.3011 2.08974 12.2949 2.09083 12.2878 2.09083L11.0134 0.592041C10.5303 0.0234353 9.70506 0.283308 9.52783 1.06039L9.1066 2.90773L7.50906 2.40391C6.84813 2.19579 6.24413 2.90664 6.42137 3.68372L6.84906 5.56327L5.27921 6.05804C4.61829 6.26652 4.39706 7.2376 4.88044 7.8062L6.1549 9.30536C6.1549 9.31296 6.15398 9.32056 6.15398 9.32852L4.82167 10.2334C4.22936 10.6355 4.22936 11.6409 4.82167 12.0431L6.15398 12.9479L4.82167 13.8528C4.22936 14.2549 4.22936 15.2603 4.82167 15.6624L6.15398 16.5673L4.82167 17.4721C4.22936 17.8743 4.22936 18.8797 4.82167 19.2818L6.15398 20.1867L4.82167 21.0915C4.22936 21.4936 4.22936 22.4991 4.82167 22.9012L6.15398 23.8061L4.82167 24.7109C4.22936 25.113 4.22936 26.1185 4.82167 26.5206L6.15398 27.4255L4.82167 28.3303C4.22936 28.7324 4.22936 29.7379 4.82167 30.14L6.15398 31.0448L4.82167 31.9497C4.22936 32.3518 4.22936 33.3573 4.82167 33.7594L6.15398 34.6642L4.82167 35.5691C4.22936 35.9712 4.22936 36.9767 4.82167 37.3788L6.15398 38.2836L4.82167 39.1885C4.22936 39.5906 4.22936 40.596 4.82167 40.9982L6.15398 41.903L4.82167 42.8079C4.22936 43.21 4.22936 44.2154 4.82167 44.6175L6.15398 45.5224L4.82167 46.4272C4.22936 46.8293 4.22936 47.8348 4.82167 48.2369L6.15398 49.1418L4.82167 50.0466C4.22936 50.4487 4.22936 51.4542 4.82167 51.8563L6.15398 52.7612C6.15398 56.7591 8.90906 59.9999 12.3078 59.9999H49.2309C52.6297 59.9999 55.3848 56.7591 55.3848 52.7612V23.8061L33.8401 22.2222C33.0085 22.161 32.228 21.7292 31.6575 21.0148C31.087 20.3004 30.7694 19.3571 30.7694 18.377C30.7694 16.3425 32.114 14.6588 33.8401 14.5317Z" fill="white"/>
<path fill-rule="evenodd" clip-rule="evenodd" d="M43.0771 59.9999H52.3079V45.5223H43.0771V59.9999Z" fill="white"/>
<path fill-rule="evenodd" clip-rule="evenodd" d="M46.1533 38.2836H55.3841V31.0448H46.1533V38.2836Z" fill="white"/>
<path fill-rule="evenodd" clip-rule="evenodd" d="M18.4617 13.8527C18.2576 13.8527 18.062 13.7573 17.9177 13.5876C17.7735 13.418 17.6924 13.1878 17.6924 12.9478C17.6924 11.4508 16.6573 10.2333 15.3847 10.2333C14.1121 10.2333 13.077 11.4508 13.077 12.9478C13.077 13.1878 12.996 13.418 12.8517 13.5876C12.7075 13.7573 12.5118 13.8527 12.3078 13.8527C12.1038 13.8527 11.9081 13.7573 11.7639 13.5876C11.6196 13.418 11.5386 13.1878 11.5386 12.9478C11.5386 10.453 13.2638 8.42358 15.3847 8.42358C17.5057 8.42358 19.2309 10.453 19.2309 12.9478C19.2309 13.1878 19.1498 13.418 19.0056 13.5876C18.8613 13.7573 18.6657 13.8527 18.4617 13.8527Z" fill="black"/>
<path fill-rule="evenodd" clip-rule="evenodd" d="M50.7752 38.6456H35.3783C35.2967 38.6456 35.2184 38.6075 35.1607 38.5396C35.103 38.4717 35.0706 38.3796 35.0706 38.2837C35.0706 38.1877 35.103 38.0956 35.1607 38.0277C35.2184 37.9598 35.2967 37.9217 35.3783 37.9217H50.7752C50.8568 37.9217 50.9351 37.9598 50.9928 38.0277C51.0505 38.0956 51.0829 38.1877 51.0829 38.2837C51.0829 38.3796 51.0505 38.4717 50.9928 38.5396C50.9351 38.6075 50.8568 38.6456 50.7752 38.6456ZM50.7752 45.8844H35.3783C35.2967 45.8844 35.2184 45.8462 35.1607 45.7784C35.103 45.7105 35.0706 45.6184 35.0706 45.5224C35.0706 45.4264 35.103 45.3344 35.1607 45.2665C35.2184 45.1986 35.2967 45.1605 35.3783 45.1605H50.7752C50.8568 45.1605 50.9351 45.1986 50.9928 45.2665C51.0505 45.3344 51.0829 45.4264 51.0829 45.5224C51.0829 45.6184 51.0505 45.7105 50.9928 45.7784C50.9351 45.8462 50.8568 45.8844 50.7752 45.8844ZM50.7752 53.1231H35.3783C35.2967 53.1231 35.2184 53.085 35.1607 53.0171C35.103 52.9493 35.0706 52.8572 35.0706 52.7612C35.0706 52.6652 35.103 52.5732 35.1607 52.5053C35.2184 52.4374 35.2967 52.3993 35.3783 52.3993H50.7752C50.8568 52.3993 50.9351 52.4374 50.9928 52.5053C51.0505 52.5732 51.0829 52.6652 51.0829 52.7612C51.0829 52.8572 51.0505 52.9493 50.9928 53.0171C50.9351 53.085 50.8568 53.1231 50.7752 53.1231ZM50.7752 35.0935H35.3783C35.2967 35.0935 35.2184 35.0554 35.1607 34.9875C35.103 34.9196 35.0706 34.8276 35.0706 34.7316C35.0706 34.6356 35.103 34.5435 35.1607 34.4757C35.2184 34.4078 35.2967 34.3696 35.3783 34.3696H50.7752C50.8568 34.3696 50.9351 34.4078 50.9928 34.4757C51.0505 34.5435 51.0829 34.6356 51.0829 34.7316C51.0829 34.8276 51.0505 34.9196 50.9928 34.9875C50.9351 35.0554 50.8568 35.0935 50.7752 35.0935ZM50.7752 42.265H35.3783C35.2967 42.265 35.2184 42.2268 35.1607 42.159C35.103 42.0911 35.0706 41.999 35.0706 41.903C35.0706 41.807 35.103 41.715 35.1607 41.6471C35.2184 41.5792 35.2967 41.5411 35.3783 41.5411H50.7752C50.8568 41.5411 50.9351 41.5792 50.9928 41.6471C51.0505 41.715 51.0829 41.807 51.0829 41.903C51.0829 41.999 51.0505 42.0911 50.9928 42.159C50.9351 42.2268 50.8568 42.265 50.7752 42.265ZM50.7752 49.5038H35.3783C35.2967 49.5038 35.2184 49.4656 35.1607 49.3977C35.103 49.3299 35.0706 49.2378 35.0706 49.1418C35.0706 49.0458 35.103 48.9538 35.1607 48.8859C35.2184 48.818 35.2967 48.7799 35.3783 48.7799H50.7752C50.8568 48.7799 50.9351 48.818 50.9928 48.8859C51.0505 48.9538 51.0829 49.0458 51.0829 49.1418C51.0829 49.2378 51.0505 49.3299 50.9928 49.3977C50.9351 49.4656 50.8568 49.5038 50.7752 49.5038ZM55.3844 16.0646C55.3808 16.0646 55.3777 16.0624 55.374 16.0628C54.4232 16.1008 53.9734 17.2195 53.5764 18.2065C53.1623 19.2381 52.842 19.9087 52.3171 19.8885C51.7358 19.8639 51.4035 19.0915 51.0515 18.2742C50.6472 17.3354 50.1857 16.2705 49.2168 16.3104C48.2795 16.348 47.8281 17.3216 47.43 18.1805C47.0063 19.0955 46.718 19.6518 46.162 19.6261C45.5691 19.6007 45.254 18.9728 44.8894 18.246C44.4829 17.4367 44.0131 16.5268 43.0629 16.5579C42.1417 16.5952 41.6891 17.4211 41.2897 18.1504C40.8672 18.9214 40.5712 19.3912 40.0081 19.3633C39.4011 19.338 39.0875 18.8168 38.7247 18.2134C38.3174 17.5355 37.8583 16.7682 36.9109 16.8055C36.01 16.8417 35.5574 17.5185 35.1583 18.115C34.7792 18.6811 34.4832 19.1291 33.8571 19.1009C33.7755 19.0974 33.696 19.1323 33.6362 19.1977C33.5765 19.2631 33.5412 19.3538 33.5383 19.4498C33.5353 19.5458 33.5649 19.6392 33.6206 19.7096C33.6762 19.7799 33.7533 19.8213 33.8349 19.8248C34.7632 19.8613 35.2334 19.1733 35.6417 18.5627C36.0038 18.0212 36.3164 17.554 36.9318 17.5294C37.5244 17.4997 37.8023 17.9329 38.2226 18.6315C38.6217 19.2953 39.0746 20.0481 39.986 20.0868C40.9407 20.1245 41.4001 19.2851 41.8069 18.5424C42.1706 17.8786 42.4844 17.3057 43.0838 17.2814C43.6355 17.2572 43.9358 17.7701 44.3592 18.6137C44.7583 19.4089 45.2103 20.3098 46.1398 20.3496C47.1014 20.3887 47.5657 19.4013 47.9703 18.5272C48.3208 17.7715 48.6515 17.0578 49.2377 17.0339C49.7894 17.0187 50.0771 17.6112 50.5026 18.6011C50.9001 19.5251 51.3509 20.5718 52.2949 20.612L52.3469 20.6131C53.2897 20.6131 53.7371 19.5001 54.1331 18.516C54.4835 17.6437 54.8152 16.8221 55.3844 16.7885V16.0646Z" fill="black"/>
<path fill-rule="evenodd" clip-rule="evenodd" d="M24.6152 59.9999H36.9229V45.5223H24.6152V59.9999Z" fill="white"/>
<path d="M55.3104 22.4388L31.3786 29.9818C31.0503 30.0853 30.8555 30.4822 30.9435 30.8684L33.2821 41.1353C33.3701 41.5214 33.7075 41.7506 34.0358 41.6471L57.9676 34.1041C58.2959 34.0006 58.4907 33.6037 58.4028 33.2175L56.0641 22.9507C55.9761 22.5645 55.6387 22.3353 55.3104 22.4388Z" fill="#D8D8D8"/>
<path d="M38.6013 35.6021L37.7445 35.8721C37.5803 35.9239 37.4829 36.1223 37.5269 36.3154L37.7565 37.3233C37.8005 37.5164 37.9692 37.631 38.1333 37.5793L38.9902 37.3092C39.1543 37.2575 39.2517 37.059 39.2078 36.8659L38.9782 35.858C38.9342 35.6649 38.7655 35.5503 38.6013 35.6021Z" fill="#4A4A4A"/>
<path d="M40.3211 35.0601L39.4642 35.3302C39.3001 35.3819 39.2026 35.5804 39.2466 35.7734L39.4762 36.7813C39.5202 36.9744 39.6889 37.089 39.8531 37.0373L40.7099 36.7672C40.8741 36.7155 40.9715 36.517 40.9275 36.3239L40.6979 35.316C40.6539 35.1229 40.4852 35.0083 40.3211 35.0601Z" fill="#4A4A4A"/>
<path d="M42.0413 34.5178L41.1844 34.7879C41.0203 34.8397 40.9229 35.0381 40.9668 35.2312L41.1964 36.2391C41.2404 36.4322 41.4091 36.5468 41.5733 36.495L42.4301 36.225C42.5943 36.1732 42.6917 35.9748 42.6477 35.7817L42.4181 34.7738C42.3741 34.5807 42.2054 34.4661 42.0413 34.5178Z" fill="#4A4A4A"/>
<path d="M43.761 33.9757L42.9041 34.2458C42.74 34.2975 42.6426 34.496 42.6866 34.6891L42.9162 35.697C42.9601 35.8901 43.1289 36.0047 43.293 35.9529L44.1499 35.6829C44.314 35.6311 44.4114 35.4327 44.3674 35.2396L44.1378 34.2317C44.0939 34.0386 43.9251 33.924 43.761 33.9757Z" fill="#4A4A4A"/>
<path d="M45.4807 33.4337L44.6239 33.7038C44.4597 33.7555 44.3623 33.954 44.4063 34.1471L44.6359 35.155C44.6799 35.3481 44.8486 35.4627 45.0127 35.4109L45.8696 35.1409C46.0337 35.0891 46.1311 34.8907 46.0872 34.6976L45.8576 33.6897C45.8136 33.4966 45.6449 33.382 45.4807 33.4337Z" fill="#4A4A4A"/>
<path d="M47.2014 32.8915L46.3446 33.1616C46.1804 33.2133 46.083 33.4118 46.127 33.6049L46.3566 34.6128C46.4006 34.8059 46.5693 34.9204 46.7334 34.8687L47.5903 34.5986C47.7544 34.5469 47.8518 34.3484 47.8079 34.1553L47.5783 33.1474C47.5343 32.9543 47.3656 32.8398 47.2014 32.8915Z" fill="#4A4A4A"/>
<path d="M48.9211 32.3494L48.0643 32.6195C47.9002 32.6712 47.8027 32.8697 47.8467 33.0627L48.0763 34.0707C48.1203 34.2637 48.289 34.3783 48.4532 34.3266L49.31 34.0565C49.4742 34.0048 49.5716 33.8063 49.5276 33.6132L49.298 32.6053C49.254 32.4122 49.0853 32.2977 48.9211 32.3494Z" fill="#4A4A4A"/>
<path d="M50.6409 31.8074L49.784 32.0775C49.6199 32.1292 49.5225 32.3277 49.5665 32.5207L49.796 33.5287C49.84 33.7217 50.0087 33.8363 50.1729 33.7846L51.0297 33.5145C51.1939 33.4628 51.2913 33.2643 51.2473 33.0712L51.0177 32.0633C50.9737 31.8702 50.805 31.7557 50.6409 31.8074Z" fill="#4A4A4A"/>
<path d="M52.3611 31.2652L51.5042 31.5352C51.3401 31.587 51.2427 31.7854 51.2867 31.9785L51.5163 32.9864C51.5602 33.1795 51.729 33.2941 51.8931 33.2424L52.75 32.9723C52.9141 32.9205 53.0115 32.7221 52.9675 32.529L52.7379 31.5211C52.694 31.328 52.5252 31.2134 52.3611 31.2652Z" fill="#4A4A4A"/>
<path fill-rule="evenodd" clip-rule="evenodd" d="M33.1762 37.3127L36.8277 36.1618C36.9065 36.1369 36.9905 36.1499 37.0612 36.1979C37.1318 36.2459 37.1834 36.325 37.2045 36.4177L37.434 37.4253C37.4552 37.518 37.4441 37.6168 37.4033 37.6999C37.3625 37.783 37.2953 37.8437 37.2165 37.8685L33.565 39.0195C33.4862 39.0443 33.4022 39.0313 33.3315 38.9833C33.2608 38.9353 33.2093 38.8562 33.1881 38.7635L32.9585 37.7556C32.9374 37.6629 32.9485 37.5641 32.9893 37.481C33.0301 37.3978 33.0973 37.3372 33.1761 37.3123L33.1762 37.3127ZM53.2776 30.977L56.9294 29.8259C57.0082 29.8011 57.0922 29.8141 57.1628 29.8621C57.2335 29.9101 57.2851 29.9892 57.3062 30.0819L57.5357 31.0894C57.5568 31.1822 57.5458 31.281 57.505 31.3641C57.4642 31.4472 57.397 31.5079 57.3181 31.5327L53.6661 32.6838C53.5872 32.7087 53.5032 32.6957 53.4326 32.6477C53.3619 32.5997 53.3103 32.5206 53.2892 32.4279L53.0596 31.42C53.0385 31.3273 53.0495 31.2285 53.0904 31.1453C53.1312 31.0622 53.1984 31.0015 53.2772 30.9767L53.2776 30.977Z" fill="#4A4A4A"/>
<path fill-rule="evenodd" clip-rule="evenodd" d="M32.2459 33.227L33.6398 32.7877C33.7187 32.7628 33.8027 32.7758 33.8733 32.8238C33.944 32.8718 33.9956 32.9509 34.0167 33.0436L34.2462 34.0512C34.2673 34.1439 34.2563 34.2427 34.2155 34.3258C34.1747 34.4089 34.1075 34.4696 34.0286 34.4944L32.6347 34.9338C32.5559 34.9586 32.4719 34.9456 32.4012 34.8976C32.3306 34.8496 32.279 34.7706 32.2579 34.6778L32.0284 33.6703C32.0072 33.5776 32.0183 33.4788 32.0591 33.3956C32.0999 33.3125 32.1671 33.2518 32.2459 33.227Z" fill="#4A4A4A"/>
<path d="M35.3601 32.2456L34.5033 32.5157C34.3391 32.5674 34.2417 32.7659 34.2857 32.959L34.5153 33.9669C34.5593 34.16 34.728 34.2746 34.8921 34.2228L35.749 33.9528C35.9131 33.901 36.0105 33.7026 35.9666 33.5095L35.737 32.5016C35.693 32.3085 35.5243 32.1939 35.3601 32.2456Z" fill="#4A4A4A"/>
<path d="M37.0803 31.7034L36.2235 31.9735C36.0593 32.0252 35.9619 32.2237 36.0059 32.4167L36.2355 33.4247C36.2795 33.6177 36.4482 33.7323 36.6123 33.6806L37.4692 33.4105C37.6333 33.3588 37.7307 33.1603 37.6868 32.9672L37.4572 31.9593C37.4132 31.7662 37.2445 31.6517 37.0803 31.7034Z" fill="#4A4A4A"/>
<path d="M38.8001 31.1614L37.9432 31.4315C37.7791 31.4832 37.6817 31.6817 37.7256 31.8748L37.9552 32.8827C37.9992 33.0757 38.1679 33.1903 38.3321 33.1386L39.1889 32.8685C39.3531 32.8168 39.4505 32.6183 39.4065 32.4252L39.1769 31.4173C39.1329 31.2242 38.9642 31.1097 38.8001 31.1614Z" fill="#4A4A4A"/>
<path d="M40.5198 30.6193L39.6629 30.8894C39.4988 30.9411 39.4014 31.1396 39.4454 31.3326L39.675 32.3406C39.7189 32.5336 39.8877 32.6482 40.0518 32.5965L40.9086 32.3264C41.0728 32.2747 41.1702 32.0762 41.1262 31.8831L40.8966 30.8752C40.8526 30.6821 40.6839 30.5675 40.5198 30.6193Z" fill="#4A4A4A"/>
<path d="M42.2405 30.0773L41.3836 30.3474C41.2195 30.3991 41.1221 30.5976 41.1661 30.7906L41.3957 31.7986C41.4396 31.9916 41.6084 32.1062 41.7725 32.0545L42.6294 31.7844C42.7935 31.7327 42.8909 31.5342 42.8469 31.3411L42.6173 30.3332C42.5733 30.1401 42.4046 30.0256 42.2405 30.0773Z" fill="#4A4A4A"/>
<path d="M43.9602 29.5351L43.1034 29.8051C42.9392 29.8569 42.8418 30.0553 42.8858 30.2484L43.1154 31.2563C43.1594 31.4494 43.3281 31.564 43.4922 31.5123L44.3491 31.2422C44.5132 31.1904 44.6106 30.992 44.5666 30.7989L44.3371 29.791C44.2931 29.5979 44.1244 29.4833 43.9602 29.5351Z" fill="#4A4A4A"/>
<path d="M45.6799 28.9929L44.8231 29.263C44.6589 29.3147 44.5615 29.5132 44.6055 29.7063L44.8351 30.7142C44.8791 30.9073 45.0478 31.0219 45.212 30.9701L46.0688 30.7001C46.2329 30.6483 46.3304 30.4499 46.2864 30.2568L46.0568 29.2489C46.0128 29.0558 45.8441 28.9412 45.6799 28.9929Z" fill="#4A4A4A"/>
<path d="M47.3997 28.4507L46.5428 28.7208C46.3787 28.7725 46.2813 28.971 46.3252 29.1641L46.5548 30.172C46.5988 30.3651 46.7675 30.4796 46.9317 30.4279L47.7885 30.1578C47.9527 30.1061 48.0501 29.9076 48.0061 29.7146L47.7765 28.7066C47.7325 28.5136 47.5638 28.399 47.3997 28.4507Z" fill="#4A4A4A"/>
<path d="M49.1194 27.9087L48.2625 28.1788C48.0984 28.2305 48.001 28.429 48.045 28.6221L48.2746 29.63C48.3185 29.8231 48.4873 29.9376 48.6514 29.8859L49.5083 29.6158C49.6724 29.5641 49.7698 29.3656 49.7258 29.1726L49.4962 28.1646C49.4523 27.9716 49.2835 27.857 49.1194 27.9087Z" fill="#4A4A4A"/>
<path d="M50.8391 27.3666L49.9823 27.6367C49.8181 27.6884 49.7207 27.8869 49.7647 28.08L49.9943 29.0879C50.0383 29.2809 50.207 29.3955 50.3711 29.3438L51.228 29.0737C51.3921 29.022 51.4895 28.8235 51.4456 28.6304L51.216 27.6225C51.172 27.4294 51.0033 27.3149 50.8391 27.3666Z" fill="#4A4A4A"/>
<path d="M52.5593 26.8246L51.7025 27.0947C51.5383 27.1464 51.4409 27.3449 51.4849 27.538L51.7145 28.5459C51.7585 28.739 51.9272 28.8535 52.0913 28.8018L52.9482 28.5317C53.1123 28.48 53.2098 28.2815 53.1658 28.0885L52.9362 27.0805C52.8922 26.8875 52.7235 26.7729 52.5593 26.8246Z" fill="#4A4A4A"/>
<path d="M54.2791 26.2825L53.4222 26.5526C53.2581 26.6043 53.1607 26.8028 53.2046 26.9958L53.4342 28.0038C53.4782 28.1968 53.6469 28.3114 53.8111 28.2597L54.6679 27.9896C54.8321 27.9379 54.9295 27.7394 54.8855 27.5463L54.6559 26.5384C54.6119 26.3453 54.4432 26.2308 54.2791 26.2825Z" fill="#4A4A4A"/>
<path d="M55.9998 25.7405L55.1429 26.0106C54.9788 26.0623 54.8814 26.2608 54.9253 26.4539L55.1549 27.4618C55.1989 27.6549 55.3676 27.7694 55.5318 27.7177L56.3886 27.4476C56.5528 27.3959 56.6502 27.1974 56.6062 27.0043L56.3766 25.9964C56.3326 25.8033 56.1639 25.6888 55.9998 25.7405Z" fill="#4A4A4A"/>
<path fill-rule="evenodd" clip-rule="evenodd" d="M55.9474 25.5115L54.5532 25.951C54.4744 25.9758 54.3904 25.9628 54.3197 25.9148C54.2491 25.8668 54.1975 25.7878 54.1764 25.695L53.9468 24.6871C53.9257 24.5944 53.9367 24.4956 53.9775 24.4125C54.0183 24.3293 54.0855 24.2687 54.1644 24.2438L55.5586 23.8044C55.6374 23.7796 55.7214 23.7926 55.792 23.8406C55.8627 23.8886 55.9143 23.9676 55.9354 24.0603L56.165 25.0682C56.1861 25.161 56.1751 25.2598 56.1343 25.3429C56.0935 25.426 56.0262 25.4867 55.9474 25.5115Z" fill="#4A4A4A"/>
<path d="M52.8328 26.4931L53.6896 26.2231C53.8538 26.1713 53.9512 25.9729 53.9072 25.7798L53.6776 24.7719C53.6336 24.5788 53.4649 24.4642 53.3007 24.5159L52.4439 24.786C52.2797 24.8378 52.1823 25.0362 52.2263 25.2293L52.4559 26.2372C52.4999 26.4303 52.6686 26.5449 52.8328 26.4931Z" fill="#4A4A4A"/>
<path d="M51.113 27.0353L51.9699 26.7652C52.134 26.7134 52.2314 26.515 52.1875 26.3219L51.9579 25.314C51.9139 25.1209 51.7452 25.0063 51.581 25.0581L50.7242 25.3281C50.56 25.3799 50.4626 25.5783 50.5066 25.7714L50.7362 26.7793C50.7802 26.9724 50.9489 27.087 51.113 27.0353Z" fill="#4A4A4A"/>
<path d="M49.3933 27.5772L50.2502 27.3072C50.4143 27.2554 50.5117 27.057 50.4677 26.8639L50.2381 25.856C50.1942 25.6629 50.0254 25.5483 49.8613 25.6001L49.0044 25.8701C48.8403 25.9219 48.7429 26.1203 48.7869 26.3134L49.0165 27.3213C49.0604 27.5144 49.2292 27.629 49.3933 27.5772Z" fill="#4A4A4A"/>
<path d="M47.6731 28.1195L48.5299 27.8494C48.6941 27.7977 48.7915 27.5992 48.7475 27.4061L48.5179 26.3982C48.4739 26.2051 48.3052 26.0906 48.1411 26.1423L47.2842 26.4124C47.1201 26.4641 47.0227 26.6626 47.0667 26.8556L47.2962 27.8636C47.3402 28.0566 47.5089 28.1712 47.6731 28.1195Z" fill="#4A4A4A"/>
<path d="M45.9534 28.6615L46.8102 28.3914C46.9744 28.3397 47.0718 28.1412 47.0278 27.9481L46.7982 26.9402C46.7542 26.7471 46.5855 26.6325 46.4213 26.6843L45.5645 26.9543C45.4004 27.0061 45.3029 27.2046 45.3469 27.3976L45.5765 28.4055C45.6205 28.5986 45.7892 28.7132 45.9534 28.6615Z" fill="#4A4A4A"/>
<path d="M44.2336 29.2036L45.0905 28.9335C45.2546 28.8818 45.352 28.6833 45.3081 28.4902L45.0785 27.4823C45.0345 27.2892 44.8658 27.1747 44.7016 27.2264L43.8448 27.4965C43.6806 27.5482 43.5832 27.7467 43.6272 27.9397L43.8568 28.9477C43.9008 29.1407 44.0695 29.2553 44.2336 29.2036Z" fill="#4A4A4A"/>
<path d="M42.5129 29.7456L43.3698 29.4755C43.5339 29.4238 43.6313 29.2253 43.5874 29.0322L43.3578 28.0243C43.3138 27.8312 43.1451 27.7167 42.9809 27.7684L42.1241 28.0385C41.9599 28.0902 41.8625 28.2887 41.9065 28.4817L42.1361 29.4897C42.1801 29.6827 42.3488 29.7973 42.5129 29.7456Z" fill="#4A4A4A"/>
<path d="M40.7932 30.2878L41.6501 30.0177C41.8142 29.966 41.9116 29.7675 41.8676 29.5745L41.638 28.5666C41.5941 28.3735 41.4253 28.2589 41.2612 28.3106L40.4043 28.5807C40.2402 28.6324 40.1428 28.8309 40.1868 29.024L40.4164 30.0319C40.4603 30.225 40.6291 30.3396 40.7932 30.2878Z" fill="#4A4A4A"/>
<path d="M39.0735 30.8299L39.9303 30.5599C40.0945 30.5081 40.1919 30.3097 40.1479 30.1166L39.9183 29.1087C39.8743 28.9156 39.7056 28.801 39.5415 28.8527L38.6846 29.1228C38.5205 29.1745 38.4231 29.373 38.467 29.5661L38.6966 30.574C38.7406 30.7671 38.9093 30.8817 39.0735 30.8299Z" fill="#4A4A4A"/>
<path d="M37.3538 31.3722L38.2106 31.1021C38.3747 31.0504 38.4722 30.8519 38.4282 30.6588L38.1986 29.6509C38.1546 29.4578 37.9859 29.3432 37.8217 29.395L36.9649 29.665C36.8007 29.7168 36.7033 29.9152 36.7473 30.1083L36.9769 31.1162C37.0209 31.3093 37.1896 31.4239 37.3538 31.3722Z" fill="#4A4A4A"/>
<path d="M35.6335 31.9142L36.4904 31.6441C36.6545 31.5924 36.7519 31.3939 36.708 31.2008L36.4784 30.1929C36.4344 29.9998 36.2657 29.8852 36.1015 29.937L35.2447 30.207C35.0805 30.2588 34.9831 30.4572 35.0271 30.6503L35.2567 31.6582C35.3007 31.8513 35.4694 31.9659 35.6335 31.9142Z" fill="#4A4A4A"/>
<path d="M33.9138 32.4563L34.7707 32.1862C34.9348 32.1345 35.0322 31.936 34.9882 31.7429L34.7586 30.735C34.7147 30.5419 34.5459 30.4273 34.3818 30.4791L33.5249 30.7492C33.3608 30.8009 33.2634 30.9994 33.3074 31.1924L33.537 32.2003C33.5809 32.3934 33.7497 32.508 33.9138 32.4563Z" fill="#4A4A4A"/>
<path d="M32.1941 32.9983L33.0509 32.7282C33.2151 32.6765 33.3125 32.478 33.2685 32.2849L33.0389 31.277C32.9949 31.0839 32.8262 30.9693 32.6621 31.0211L31.8052 31.2911C31.6411 31.3429 31.5437 31.5413 31.5876 31.7344L31.8172 32.7423C31.8612 32.9354 32.0299 33.05 32.1941 32.9983Z" fill="#4A4A4A"/>
<path d="M52.8328 26.4931L53.6896 26.2231C53.8538 26.1713 53.9512 25.9729 53.9072 25.7798L53.6776 24.7719C53.6336 24.5788 53.4649 24.4642 53.3007 24.5159L52.4439 24.786C52.2797 24.8378 52.1823 25.0362 52.2263 25.2293L52.4559 26.2372C52.4999 26.4303 52.6686 26.5449 52.8328 26.4931Z" fill="#4A4A4A"/>
<path d="M51.113 27.0353L51.9699 26.7652C52.134 26.7134 52.2314 26.515 52.1875 26.3219L51.9579 25.314C51.9139 25.1209 51.7452 25.0063 51.581 25.0581L50.7242 25.3281C50.56 25.3799 50.4626 25.5783 50.5066 25.7714L50.7362 26.7793C50.7802 26.9724 50.9489 27.087 51.113 27.0353Z" fill="#4A4A4A"/>
<path d="M49.3933 27.5772L50.2502 27.3072C50.4143 27.2554 50.5117 27.057 50.4677 26.8639L50.2381 25.856C50.1942 25.6629 50.0254 25.5483 49.8613 25.6001L49.0044 25.8701C48.8403 25.9219 48.7429 26.1203 48.7869 26.3134L49.0165 27.3213C49.0604 27.5144 49.2292 27.629 49.3933 27.5772Z" fill="#4A4A4A"/>
<path d="M47.6731 28.1195L48.5299 27.8494C48.6941 27.7977 48.7915 27.5992 48.7475 27.4061L48.5179 26.3982C48.4739 26.2051 48.3052 26.0906 48.1411 26.1423L47.2842 26.4124C47.1201 26.4641 47.0227 26.6626 47.0667 26.8556L47.2962 27.8636C47.3402 28.0566 47.5089 28.1712 47.6731 28.1195Z" fill="#4A4A4A"/>
<path d="M45.9534 28.6615L46.8102 28.3914C46.9744 28.3397 47.0718 28.1412 47.0278 27.9481L46.7982 26.9402C46.7542 26.7471 46.5855 26.6325 46.4213 26.6843L45.5645 26.9543C45.4004 27.0061 45.3029 27.2046 45.3469 27.3976L45.5765 28.4055C45.6205 28.5986 45.7892 28.7132 45.9534 28.6615Z" fill="#4A4A4A"/>
<path d="M44.2336 29.2036L45.0905 28.9335C45.2546 28.8818 45.352 28.6833 45.3081 28.4902L45.0785 27.4823C45.0345 27.2892 44.8658 27.1747 44.7016 27.2264L43.8448 27.4965C43.6806 27.5482 43.5832 27.7467 43.6272 27.9397L43.8568 28.9477C43.9008 29.1407 44.0695 29.2553 44.2336 29.2036Z" fill="#4A4A4A"/>
<path d="M42.5129 29.7456L43.3698 29.4755C43.5339 29.4238 43.6313 29.2253 43.5874 29.0322L43.3578 28.0243C43.3138 27.8312 43.1451 27.7167 42.9809 27.7684L42.1241 28.0385C41.9599 28.0902 41.8625 28.2887 41.9065 28.4817L42.1361 29.4897C42.1801 29.6827 42.3488 29.7973 42.5129 29.7456Z" fill="#4A4A4A"/>
<path d="M40.7932 30.2878L41.6501 30.0177C41.8142 29.966 41.9116 29.7675 41.8676 29.5745L41.638 28.5666C41.5941 28.3735 41.4253 28.2589 41.2612 28.3106L40.4043 28.5807C40.2402 28.6324 40.1428 28.8309 40.1868 29.024L40.4164 30.0319C40.4603 30.225 40.6291 30.3396 40.7932 30.2878Z" fill="#4A4A4A"/>
<path d="M39.0735 30.8299L39.9303 30.5599C40.0945 30.5081 40.1919 30.3097 40.1479 30.1166L39.9183 29.1087C39.8743 28.9156 39.7056 28.801 39.5415 28.8527L38.6846 29.1228C38.5205 29.1745 38.4231 29.373 38.467 29.5661L38.6966 30.574C38.7406 30.7671 38.9093 30.8817 39.0735 30.8299Z" fill="#4A4A4A"/>
<path d="M37.3538 31.3722L38.2106 31.1021C38.3747 31.0504 38.4722 30.8519 38.4282 30.6588L38.1986 29.6509C38.1546 29.4578 37.9859 29.3432 37.8217 29.395L36.9649 29.665C36.8007 29.7168 36.7033 29.9152 36.7473 30.1083L36.9769 31.1162C37.0209 31.3093 37.1896 31.4239 37.3538 31.3722Z" fill="#4A4A4A"/>
<path d="M35.6335 31.9142L36.4904 31.6441C36.6545 31.5924 36.7519 31.3939 36.708 31.2008L36.4784 30.1929C36.4344 29.9998 36.2657 29.8852 36.1015 29.937L35.2447 30.207C35.0805 30.2588 34.9831 30.4572 35.0271 30.6503L35.2567 31.6582C35.3007 31.8513 35.4694 31.9659 35.6335 31.9142Z" fill="#4A4A4A"/>
<path d="M33.9138 32.4563L34.7707 32.1862C34.9348 32.1345 35.0322 31.936 34.9882 31.7429L34.7586 30.735C34.7147 30.5419 34.5459 30.4273 34.3818 30.4791L33.5249 30.7492C33.3608 30.8009 33.2634 30.9994 33.3074 31.1924L33.537 32.2003C33.5809 32.3934 33.7497 32.508 33.9138 32.4563Z" fill="#4A4A4A"/>
<path d="M32.1941 32.9983L33.0509 32.7282C33.2151 32.6765 33.3125 32.478 33.2685 32.2849L33.0389 31.277C32.9949 31.0839 32.8262 30.9693 32.6621 31.0211L31.8052 31.2911C31.6411 31.3429 31.5437 31.5413 31.5876 31.7344L31.8172 32.7423C31.8612 32.9354 32.0299 33.05 32.1941 32.9983Z" fill="#4A4A4A"/>
<path fill-rule="evenodd" clip-rule="evenodd" d="M32.7074 35.2498L34.6927 34.6241C34.7715 34.5992 34.8555 34.6122 34.9262 34.6602C34.9969 34.7082 35.0484 34.7873 35.0696 34.88L35.2992 35.8879C35.3203 35.9806 35.3092 36.0794 35.2684 36.1626C35.2276 36.2457 35.1604 36.3064 35.0816 36.3312L33.0962 36.957C33.0174 36.9818 32.9334 36.9688 32.8627 36.9208C32.7921 36.8728 32.7405 36.7937 32.7194 36.701L32.4899 35.6935C32.4688 35.6007 32.4798 35.5019 32.5206 35.4188C32.5614 35.3357 32.6286 35.275 32.7074 35.2502L32.7074 35.2498Z" fill="#4A4A4A"/>
<path d="M36.4661 34.065L35.6092 34.335C35.4451 34.3868 35.3477 34.5852 35.3916 34.7783L35.6212 35.7862C35.6652 35.9793 35.8339 36.0939 35.9981 36.0422L36.8549 35.7721C37.0191 35.7204 37.1165 35.5219 37.0725 35.3288L36.8429 34.3209C36.7989 34.1278 36.6302 34.0132 36.4661 34.065Z" fill="#4A4A4A"/>
<path d="M38.1863 33.5229L37.3294 33.7929C37.1653 33.8447 37.0679 34.0431 37.1119 34.2362L37.3415 35.2441C37.3854 35.4372 37.5542 35.5518 37.7183 35.5L38.5752 35.23C38.7393 35.1782 38.8367 34.9798 38.7927 34.7867L38.5631 33.7788C38.5191 33.5857 38.3504 33.4711 38.1863 33.5229Z" fill="#4A4A4A"/>
<path d="M39.906 32.9809L39.0492 33.2509C38.885 33.3027 38.7876 33.5011 38.8316 33.6942L39.0612 34.7021C39.1052 34.8952 39.2739 35.0098 39.438 34.9581L40.2949 34.688C40.459 34.6362 40.5564 34.4378 40.5124 34.2447L40.2829 33.2368C40.2389 33.0437 40.0702 32.9291 39.906 32.9809Z" fill="#4A4A4A"/>
<path d="M41.6257 32.4386L40.7689 32.7087C40.6047 32.7604 40.5073 32.9589 40.5513 33.152L40.7809 34.1599C40.8249 34.353 40.9936 34.4676 41.1578 34.4158L42.0146 34.1457C42.1787 34.094 42.2762 33.8955 42.2322 33.7025L42.0026 32.6946C41.9586 32.5015 41.7899 32.3869 41.6257 32.4386Z" fill="#4A4A4A"/>
<path d="M43.3455 31.8965L42.4886 32.1666C42.3245 32.2183 42.2271 32.4168 42.271 32.6099L42.5006 33.6178C42.5446 33.8109 42.7133 33.9254 42.8775 33.8737L43.7343 33.6036C43.8985 33.5519 43.9959 33.3534 43.9519 33.1604L43.7223 32.1524C43.6783 31.9594 43.5096 31.8448 43.3455 31.8965Z" fill="#4A4A4A"/>
<path d="M45.0662 31.3545L44.2093 31.6246C44.0452 31.6763 43.9478 31.8748 43.9917 32.0679L44.2213 33.0758C44.2653 33.2689 44.434 33.3834 44.5982 33.3317L45.455 33.0616C45.6192 33.0099 45.7166 32.8114 45.6726 32.6184L45.443 31.6104C45.399 31.4174 45.2303 31.3028 45.0662 31.3545Z" fill="#4A4A4A"/>
<path d="M46.7859 30.8123L45.929 31.0823C45.7649 31.1341 45.6675 31.3325 45.7115 31.5256L45.9411 32.5335C45.985 32.7266 46.1538 32.8412 46.3179 32.7895L47.1748 32.5194C47.3389 32.4677 47.4363 32.2692 47.3923 32.0761L47.1627 31.0682C47.1188 30.8751 46.95 30.7605 46.7859 30.8123Z" fill="#4A4A4A"/>
<path d="M48.5056 30.2703L47.6488 30.5404C47.4846 30.5921 47.3872 30.7906 47.4312 30.9836L47.6608 31.9916C47.7048 32.1846 47.8735 32.2992 48.0376 32.2475L48.8945 31.9774C49.0586 31.9257 49.156 31.7272 49.1121 31.5341L48.8825 30.5262C48.8385 30.3331 48.6698 30.2186 48.5056 30.2703Z" fill="#4A4A4A"/>
<path d="M50.2253 29.7283L49.3685 29.9984C49.2044 30.0501 49.1069 30.2486 49.1509 30.4416L49.3805 31.4496C49.4245 31.6426 49.5932 31.7572 49.7574 31.7055L50.6142 31.4354C50.7784 31.3837 50.8758 31.1852 50.8318 30.9921L50.6022 29.9842C50.5582 29.7911 50.3895 29.6766 50.2253 29.7283Z" fill="#4A4A4A"/>
<path d="M51.9456 29.1862L51.0887 29.4563C50.9246 29.508 50.8272 29.7065 50.8711 29.8995L51.1007 30.9074C51.1447 31.1005 51.3134 31.2151 51.4776 31.1634L52.3344 30.8933C52.4986 30.8416 52.596 30.6431 52.552 30.45L52.3224 29.4421C52.2784 29.249 52.1097 29.1344 51.9456 29.1862Z" fill="#4A4A4A"/>
<path d="M53.6653 28.6439L52.8084 28.914C52.6443 28.9657 52.5469 29.1642 52.5909 29.3573L52.8205 30.3652C52.8644 30.5583 53.0332 30.6729 53.1973 30.6211L54.0542 30.3511C54.2183 30.2993 54.3157 30.1009 54.2717 29.9078L54.0421 28.8999C53.9982 28.7068 53.8294 28.5922 53.6653 28.6439Z" fill="#4A4A4A"/>
<path fill-rule="evenodd" clip-rule="evenodd" d="M54.5827 28.3552L56.4604 27.7634C56.5392 27.7385 56.6232 27.7515 56.6939 27.7995C56.7646 27.8475 56.8161 27.9266 56.8373 28.0193L57.0669 29.0272C57.088 29.1199 57.0769 29.2187 57.0361 29.3018C56.9953 29.385 56.9281 29.4456 56.8493 29.4705L54.9712 30.0624C54.8924 30.0873 54.8084 30.0743 54.7377 30.0263C54.6671 29.9783 54.6155 29.8992 54.5944 29.8065L54.3649 28.7989C54.3438 28.7062 54.3548 28.6074 54.3956 28.5243C54.4364 28.4412 54.5036 28.3805 54.5824 28.3556L54.5827 28.3552Z" fill="#4A4A4A"/>
<path d="M34.5144 39.1527L33.6576 39.4228C33.4934 39.4745 33.396 39.673 33.44 39.8661L33.6696 40.874C33.7136 41.0671 33.8823 41.1817 34.0464 41.1299L34.9033 40.8599C35.0674 40.8081 35.1648 40.6097 35.1208 40.4166L34.8913 39.4087C34.8473 39.2156 34.6786 39.101 34.5144 39.1527Z" fill="#4A4A4A"/>
<path d="M36.2346 38.6106L35.3778 38.8807C35.2136 38.9324 35.1162 39.1309 35.1602 39.324L35.3898 40.3319C35.4338 40.525 35.6025 40.6396 35.7666 40.5878L36.6235 40.3177C36.7876 40.266 36.885 40.0675 36.8411 39.8745L36.6115 38.8665C36.5675 38.6735 36.3988 38.5589 36.2346 38.6106Z" fill="#4A4A4A"/>
<path d="M37.9539 38.0684L37.097 38.3385C36.9329 38.3902 36.8355 38.5887 36.8794 38.7817L37.109 39.7896C37.153 39.9827 37.3217 40.0973 37.4859 40.0456L38.3427 39.7755C38.5069 39.7238 38.6043 39.5253 38.5603 39.3322L38.3307 38.3243C38.2867 38.1312 38.118 38.0166 37.9539 38.0684Z" fill="#4A4A4A"/>
<path d="M39.6741 37.5263L38.8172 37.7963C38.6531 37.8481 38.5557 38.0465 38.5997 38.2396L38.8292 39.2475C38.8732 39.4406 39.0419 39.5552 39.2061 39.5035L40.0629 39.2334C40.2271 39.1817 40.3245 38.9832 40.2805 38.7901L40.0509 37.7822C40.0069 37.5891 39.8382 37.4745 39.6741 37.5263Z" fill="#4A4A4A"/>
<path fill-rule="evenodd" clip-rule="evenodd" d="M40.537 37.2543L48.8112 34.6464C48.89 34.6215 48.974 34.6345 49.0447 34.6825C49.1154 34.7305 49.1669 34.8096 49.1881 34.9023L49.4177 35.9106C49.4389 36.0033 49.4278 36.1021 49.387 36.1852C49.3462 36.2684 49.279 36.329 49.2002 36.3539L40.9259 38.9618C40.8471 38.9867 40.7631 38.9737 40.6924 38.9257C40.6217 38.8777 40.5702 38.7986 40.5491 38.7059L40.3194 37.6976C40.2983 37.6049 40.3093 37.5061 40.3501 37.423C40.3909 37.3399 40.4581 37.2792 40.537 37.2543ZM49.674 34.3744L50.746 34.0366C50.8249 34.0117 50.9089 34.0247 50.9795 34.0727C51.0502 34.1207 51.1018 34.1998 51.1229 34.2925L51.3526 35.3007C51.3737 35.3935 51.3626 35.4923 51.3218 35.5754C51.281 35.6585 51.2138 35.7192 51.135 35.744L50.063 36.0819C49.9841 36.1068 49.9002 36.0938 49.8295 36.0458C49.7588 35.9978 49.7072 35.9187 49.6861 35.826L49.4565 34.8177C49.4353 34.725 49.4464 34.6262 49.4872 34.5431C49.528 34.4599 49.5952 34.3993 49.674 34.3744Z" fill="#4A4A4A"/>
<path d="M52.4661 33.4944L51.6092 33.7645C51.4451 33.8162 51.3477 34.0147 51.3916 34.2078L51.6212 35.2157C51.6652 35.4088 51.8339 35.5233 51.9981 35.4716L52.8549 35.2015C53.0191 35.1498 53.1165 34.9513 53.0725 34.7583L52.8429 33.7503C52.7989 33.5573 52.6302 33.4427 52.4661 33.4944Z" fill="#4A4A4A"/>
<path d="M54.1863 32.9524L53.3294 33.2225C53.1653 33.2742 53.0679 33.4727 53.1119 33.6658L53.3415 34.6737C53.3854 34.8668 53.5542 34.9813 53.7183 34.9296L54.5751 34.6595C54.7393 34.6078 54.8367 34.4093 54.7927 34.2163L54.5631 33.2083C54.5191 33.0153 54.3504 32.9007 54.1863 32.9524Z" fill="#4A4A4A"/>
<path d="M57.4104 31.9361L56.5536 32.2061C56.3894 32.2579 56.292 32.4563 56.336 32.6494L56.5656 33.6573C56.6096 33.8504 56.7783 33.965 56.9424 33.9133L57.7993 33.6432C57.9634 33.5914 58.0608 33.393 58.0168 33.1999L57.7872 32.192C57.7433 31.9989 57.5745 31.8843 57.4104 31.9361Z" fill="#4A4A4A"/>
<path d="M54.8095 33.5352L54.7235 33.1576C54.7023 33.0649 54.7134 32.9661 54.7542 32.883C54.795 32.7998 54.8622 32.7392 54.941 32.7143L55.7979 32.4443C55.8767 32.4194 55.9607 32.4324 56.0314 32.4804C56.102 32.5284 56.1536 32.6075 56.1747 32.7002L56.2607 33.0778L54.8095 33.5352Z" fill="#4A4A4A"/>
<path d="M56.3189 33.3304L56.405 33.708C56.4261 33.8007 56.415 33.8995 56.3742 33.9826C56.3334 34.0658 56.2662 34.1264 56.1874 34.1513L55.3305 34.4213C55.2517 34.4462 55.1677 34.4332 55.097 34.3852C55.0264 34.3372 54.9748 34.2581 54.9537 34.1654L54.8677 33.7878L56.3189 33.3304Z" fill="#4A4A4A"/>
<path d="M55.2576 22.8567L31.716 30.2768C31.5379 30.3329 31.4322 30.5482 31.48 30.7577C31.5277 30.9672 31.7107 31.0916 31.8888 31.0354L55.4304 23.6154C55.6085 23.5593 55.7142 23.3439 55.6665 23.1344C55.6187 22.9249 55.4357 22.8006 55.2576 22.8567Z" fill="#4A4A4A"/>
<path opacity="0.136" d="M33.1545 29.9589L32.2281 30.2509C32.1094 30.2883 32.039 30.4318 32.0708 30.5714L32.0708 30.5717C32.1026 30.7113 32.2246 30.7942 32.3433 30.7568L33.2697 30.4648C33.3884 30.4274 33.4588 30.2839 33.427 30.1443L33.4269 30.1439C33.3951 30.0043 33.2731 29.9215 33.1545 29.9589Z" fill="#D8D8D8"/>
<path opacity="0.136" d="M35.0104 29.374L34.084 29.666C33.9653 29.7034 33.8949 29.8469 33.9267 29.9865L33.9268 29.9869C33.9586 30.1265 34.0806 30.2093 34.1993 30.1719L35.1257 29.8799C35.2443 29.8425 35.3148 29.699 35.283 29.5594L35.2829 29.5591C35.2511 29.4195 35.1291 29.3366 35.0104 29.374Z" fill="#D8D8D8"/>
<path opacity="0.136" d="M36.4386 28.924L35.5122 29.216C35.3936 29.2534 35.3231 29.3969 35.3549 29.5365L35.355 29.5368C35.3868 29.6764 35.5088 29.7592 35.6275 29.7218L36.5539 29.4299C36.6726 29.3924 36.743 29.249 36.7112 29.1094L36.7111 29.109C36.6793 28.9694 36.5573 28.8866 36.4386 28.924Z" fill="#D8D8D8"/>
<path opacity="0.136" d="M37.8664 28.474L36.94 28.766C36.8213 28.8034 36.7509 28.9469 36.7827 29.0865L36.7828 29.0869C36.8146 29.2265 36.9365 29.3093 37.0552 29.2719L37.9816 28.9799C38.1003 28.9425 38.1707 28.799 38.1389 28.6594L38.1388 28.6591C38.107 28.5195 37.9851 28.4366 37.8664 28.474Z" fill="#D8D8D8"/>
<path opacity="0.136" d="M39.2936 28.0239L38.3672 28.3159C38.2485 28.3533 38.1781 28.4968 38.2099 28.6364L38.21 28.6368C38.2418 28.7764 38.3638 28.8592 38.4825 28.8218L39.4089 28.5298C39.5275 28.4924 39.598 28.3489 39.5662 28.2093L39.5661 28.209C39.5343 28.0694 39.4123 27.9865 39.2936 28.0239Z" fill="#D8D8D8"/>
<path opacity="0.136" d="M41.0778 27.4617L40.1514 27.7537C40.0327 27.7911 39.9623 27.9346 39.9941 28.0742L39.9942 28.0745C40.026 28.2141 40.148 28.297 40.2666 28.2596L41.193 27.9676C41.3117 27.9302 41.3821 27.7867 41.3503 27.6471L41.3503 27.6467C41.3185 27.5071 41.1965 27.4243 41.0778 27.4617Z" fill="#D8D8D8"/>
<path opacity="0.136" d="M42.5055 27.0116L41.5791 27.3036C41.4605 27.341 41.39 27.4845 41.4218 27.6241L41.4219 27.6245C41.4537 27.7641 41.5757 27.8469 41.6944 27.8095L42.6208 27.5175C42.7394 27.4801 42.8099 27.3366 42.7781 27.197L42.778 27.1967C42.7462 27.0571 42.6242 26.9742 42.5055 27.0116Z" fill="#D8D8D8"/>
<path opacity="0.136" d="M43.9338 26.5617L43.0074 26.8537C42.8887 26.8911 42.8183 27.0346 42.8501 27.1742L42.8501 27.1745C42.8819 27.3141 43.0039 27.3969 43.1226 27.3595L44.049 27.0675C44.1677 27.0301 44.2381 26.8867 44.2063 26.7471L44.2062 26.7467C44.1744 26.6071 44.0524 26.5243 43.9338 26.5617Z" fill="#D8D8D8"/>
<path opacity="0.136" d="M45.361 26.1118L44.4346 26.4038C44.3159 26.4412 44.2455 26.5847 44.2773 26.7243L44.2774 26.7247C44.3092 26.8643 44.4312 26.9471 44.5498 26.9097L45.4762 26.6177C45.5949 26.5803 45.6653 26.4368 45.6335 26.2972L45.6335 26.2969C45.6017 26.1573 45.4797 26.0744 45.361 26.1118Z" fill="#D8D8D8"/>
<path opacity="0.136" d="M47.1452 25.5491L46.2188 25.8411C46.1001 25.8785 46.0297 26.022 46.0615 26.1616L46.0616 26.1619C46.0934 26.3015 46.2153 26.3844 46.334 26.347L47.2604 26.055C47.3791 26.0176 47.4495 25.8741 47.4177 25.7345L47.4176 25.7341C47.3858 25.5945 47.2639 25.5117 47.1452 25.5491Z" fill="#D8D8D8"/>
<path opacity="0.136" d="M48.5734 25.0993L47.647 25.3913C47.5283 25.4287 47.4579 25.5722 47.4897 25.7117L47.4898 25.7121C47.5216 25.8517 47.6436 25.9345 47.7622 25.8971L48.6886 25.6051C48.8073 25.5677 48.8777 25.4243 48.8459 25.2847L48.8459 25.2843C48.8141 25.1447 48.6921 25.0619 48.5734 25.0993Z" fill="#D8D8D8"/>
<path opacity="0.136" d="M50.0011 24.6493L49.0747 24.9413C48.9561 24.9787 48.8856 25.1222 48.9174 25.2618L48.9175 25.2621C48.9493 25.4017 49.0713 25.4846 49.19 25.4472L50.1164 25.1552C50.2351 25.1178 50.3055 24.9743 50.2737 24.8347L50.2736 24.8344C50.2418 24.6948 50.1198 24.6119 50.0011 24.6493Z" fill="#D8D8D8"/>
<path opacity="0.136" d="M51.7853 24.0868L50.8589 24.3788C50.7402 24.4162 50.6698 24.5597 50.7016 24.6993L50.7017 24.6996C50.7335 24.8392 50.8555 24.9221 50.9742 24.8847L51.9006 24.5927C52.0192 24.5553 52.0897 24.4118 52.0579 24.2722L52.0578 24.2719C52.026 24.1323 51.904 24.0494 51.7853 24.0868Z" fill="#D8D8D8"/>
<path opacity="0.136" d="M53.2126 23.6367L52.2862 23.9287C52.1675 23.9661 52.0971 24.1096 52.1289 24.2492L52.1289 24.2496C52.1607 24.3892 52.2827 24.472 52.4014 24.4346L53.3278 24.1426C53.4465 24.1052 53.5169 23.9617 53.4851 23.8221L53.485 23.8218C53.4532 23.6822 53.3312 23.5993 53.2126 23.6367Z" fill="#D8D8D8"/>
<path opacity="0.136" d="M54.6408 23.1869L53.7144 23.4789C53.5957 23.5163 53.5253 23.6598 53.5571 23.7994L53.5572 23.7997C53.589 23.9393 53.711 24.0222 53.8296 23.9848L54.756 23.6928C54.8747 23.6554 54.9451 23.5119 54.9133 23.3723L54.9133 23.3719C54.8815 23.2324 54.7595 23.1495 54.6408 23.1869Z" fill="#D8D8D8"/>
<path fill-rule="evenodd" clip-rule="evenodd" d="M24.6152 38.2836H36.9229V31.0448H24.6152V38.2836Z" fill="white"/>
<path fill-rule="evenodd" clip-rule="evenodd" d="M43.0768 8.87606C43.0276 8.87606 42.9753 8.86882 42.9261 8.85796C42.8766 8.84664 42.8282 8.82967 42.7815 8.80729C42.7353 8.78558 42.6922 8.75662 42.6488 8.72405C42.6088 8.69147 42.5692 8.65166 42.5319 8.61184C42.4984 8.56841 42.4645 8.52498 42.4368 8.47431C42.4092 8.42364 42.3845 8.37296 42.3658 8.31867C42.328 8.20818 42.3083 8.0903 42.3076 7.97121C42.3076 7.9133 42.3138 7.85177 42.323 7.79386C42.3322 7.73595 42.3476 7.68166 42.3658 7.62375C42.3845 7.56946 42.4092 7.51879 42.4368 7.46812C42.4645 7.42107 42.4984 7.37401 42.5319 7.33058C42.5692 7.29077 42.6088 7.25095 42.6488 7.21838C42.6922 7.1858 42.7353 7.15685 42.7815 7.13513C42.8273 7.11342 42.8768 7.09532 42.9261 7.08446C43.0245 7.05913 43.1261 7.05913 43.2276 7.08446C43.2765 7.09532 43.3261 7.11342 43.3722 7.13513C43.4181 7.15685 43.4615 7.1858 43.5045 7.21838C43.5445 7.25095 43.5842 7.29077 43.6215 7.33058C43.6553 7.37401 43.6892 7.42107 43.7168 7.46812C43.7445 7.51879 43.7692 7.56946 43.7876 7.62375C43.8061 7.68166 43.8215 7.73595 43.8307 7.79386C43.8396 7.85177 43.8461 7.9133 43.8461 7.97121C43.8461 8.21009 43.7627 8.44535 43.6215 8.61184C43.5842 8.65166 43.5445 8.69147 43.5045 8.72405C43.4615 8.75662 43.4181 8.78558 43.3722 8.80729C43.2784 8.8523 43.1781 8.87565 43.0768 8.87606ZM49.2307 8.42364C49.0276 8.42364 48.8307 8.32591 48.6858 8.15942C48.6516 8.11603 48.6198 8.07009 48.5907 8.02188C48.563 7.97121 48.5384 7.92054 48.5196 7.86625C48.4819 7.75576 48.4621 7.63788 48.4615 7.51879C48.4615 7.27991 48.5445 7.04827 48.6858 6.87816C48.723 6.83834 48.7627 6.79853 48.8027 6.76596C48.8461 6.73338 48.8892 6.70443 48.9353 6.68271C48.9812 6.66099 49.0307 6.6429 49.0799 6.63204C49.1784 6.6067 49.283 6.6067 49.3815 6.63204C49.4304 6.6429 49.4799 6.66099 49.5261 6.68271C49.5719 6.70443 49.6153 6.73338 49.6584 6.76596C49.6984 6.79853 49.7381 6.83834 49.7753 6.87816C49.9165 7.04827 49.9999 7.27991 49.9999 7.51879C49.9999 7.5767 49.9935 7.63823 49.9845 7.69614C49.9753 7.75405 49.9599 7.81196 49.9415 7.86625C49.9199 7.92054 49.8984 7.97121 49.8707 8.02188C49.843 8.06894 49.8092 8.11599 49.7753 8.15942C49.7381 8.19923 49.6984 8.23905 49.6584 8.27162C49.6153 8.3042 49.5719 8.33315 49.5261 8.35487C49.4323 8.39988 49.332 8.42322 49.2307 8.42364Z" fill="black"/>
</svg>
