<svg width="8" height="13" viewBox="0 0 8 13" fill="none" xmlns="http://www.w3.org/2000/svg">
<path d="M4.18188 0.5C4.18188 0.223858 3.95803 0 3.68188 0C3.40574 0 3.18188 0.223858 3.18188 0.5H4.18188ZM3.32833 12.8536C3.52359 13.0488 3.84018 13.0488 4.03544 12.8536L7.21742 9.67157C7.41268 9.47631 7.41268 9.15973 7.21742 8.96447C7.02216 8.7692 6.70557 8.7692 6.51031 8.96447L3.68188 11.7929L0.853458 8.96447C0.658195 8.7692 0.341613 8.7692 0.146351 8.96447C-0.0489113 9.15973 -0.0489113 9.47631 0.146351 9.67157L3.32833 12.8536ZM3.18188 0.5V12.5H4.18188V0.5H3.18188Z" fill="white"/>
</svg>
